<?xml version="1.0" encoding="UTF-8"?>
<svg id="Layer_2" data-name="Layer 2" xmlns="http://www.w3.org/2000/svg" viewBox="0 0 1246.82 323.75">
  <defs>
    <style>
      .cls-1 {
        fill: #55d6be;
      }

      .cls-2 {
        fill: #fff;
        font-family: CenturyGothic, 'Century Gothic';
        font-size: 59.92px;
      }
    </style>
  </defs>
  <g id="Layer_1-2" data-name="Layer 1">
    <g>
      <rect class="cls-1" x="830.33" y="230.84" width="416.49" height="80.18" rx="40.09" ry="40.09"/>
      <polygon class="cls-1" points="541.72 204.96 508.68 204.96 473.19 150.7 437.66 204.96 404.42 204.96 456.59 125.38 407.68 50.62 440.72 50.62 469.06 93.91 473.15 100.18 479.3 90.81 505.67 50.62 538.67 50.62 512.38 90.81 496.27 115.45 489.71 125.46 541.72 204.96"/>
      <path class="cls-1" d="M588.75,90.81v-42.08h-28.62v42.08h-37.38l-16.12,24.64h53.5v89.51h28.62v-89.51h22.03c3.26-6.83,7.64-13.1,13.14-18.77,2.09-2.13,4.26-4.1,6.51-5.87h-41.68Z"/>
      <path class="cls-1" d="M735.53,150.7c0-18.89-5.63-34.08-16.88-45.58-11.25-11.5-25.88-17.24-43.85-17.24-6.99,0-13.46.96-19.45,2.93-8.6,2.77-16.2,7.56-22.79,14.31-3.14,3.22-5.83,6.67-8.08,10.33-5.83,9.49-8.76,20.5-8.76,33.04,0,17,5.63,31.15,16.88,42.44,11.25,11.29,25.84,16.96,43.77,16.96,11.54,0,21.5-2.05,29.9-6.15,8.4-4.1,15.59-10.41,21.58-18.93l-24.12-11.33c-7.68,7.48-16.88,11.21-27.57,11.21-8.96,0-16.32-2.37-22.11-7.19-5.75-4.78-9.32-11.21-10.65-19.33h92l.12-5.47ZM644.7,133.62c3.22-7.07,6.71-12.02,10.49-14.79,1.81-1.33,3.7-2.49,5.67-3.38,4.62-2.25,9.73-3.38,15.35-3.38,3.5,0,6.83.44,9.93,1.37,3.38,1,6.55,2.53,9.44,4.62,5.59,3.98,9.32,9.16,11.21,15.55h-62.1Z"/>
      <path class="cls-1" d="M735.53,150.7c0-18.89-5.63-34.08-16.88-45.58-11.25-11.5-25.88-17.24-43.85-17.24-6.99,0-13.46.96-19.45,2.93-8.6,2.77-16.2,7.56-22.79,14.31-3.14,3.22-5.83,6.67-8.08,10.33-5.83,9.49-8.76,20.5-8.76,33.04,0,17,5.63,31.15,16.88,42.44,11.25,11.29,25.84,16.96,43.77,16.96,11.54,0,21.5-2.05,29.9-6.15,8.4-4.1,15.59-10.41,21.58-18.93l-24.12-11.33c-7.68,7.48-16.88,11.21-27.57,11.21-8.96,0-16.32-2.37-22.11-7.19-5.75-4.78-9.32-11.21-10.65-19.33h92l.12-5.47ZM644.7,133.62c3.22-7.07,6.71-12.02,10.49-14.79,1.81-1.33,3.7-2.49,5.67-3.38,4.62-2.25,9.73-3.38,15.35-3.38,3.5,0,6.83.44,9.93,1.37,3.38,1,6.55,2.53,9.44,4.62,5.59,3.98,9.32,9.16,11.21,15.55h-62.1Z"/>
      <path class="cls-1" d="M758.61,90.8h28.64v11.7c6.5-5.48,12.38-9.29,17.65-11.43,5.27-2.14,10.67-3.21,16.18-3.21,11.32,0,20.92,3.95,28.81,11.85,6.63,6.72,9.95,16.65,9.95,29.8v75.43h-28.33v-49.99c0-13.62-.61-22.67-1.83-27.14-1.22-4.47-3.35-7.88-6.39-10.22-3.03-2.34-6.78-3.51-11.25-3.51-5.79,0-10.76,1.94-14.92,5.82-4.15,3.88-7.03,9.24-8.64,16.08-.84,3.56-1.26,11.28-1.26,23.16v45.79h-28.64v-114.14Z"/>
      <path class="cls-1" d="M891.01,48.73h28.64v45.53h17v24.66h-17v86.02h-28.64v-86.02h-14.69v-24.66h14.69v-45.53Z"/>
      <path class="cls-1" d="M963.14,48.73c5.02,0,9.33,1.82,12.92,5.46,3.59,3.63,5.39,8.04,5.39,13.22s-1.78,9.46-5.33,13.06c-3.56,3.6-7.81,5.4-12.76,5.4s-9.44-1.84-13.03-5.51c-3.59-3.67-5.39-8.13-5.39-13.38s1.77-9.34,5.33-12.91c3.56-3.57,7.85-5.35,12.87-5.35ZM948.82,94.26h28.64v110.68h-28.64v-110.68Z"/>
      <path class="cls-1" d="M1057.09,87.86c10.77,0,20.89,2.69,30.37,8.08,9.48,5.39,16.87,12.69,22.19,21.93,5.31,9.23,7.97,19.2,7.97,29.9s-2.67,20.84-8.02,30.22c-5.35,9.37-12.64,16.7-21.87,21.98-9.24,5.28-19.41,7.92-30.53,7.92-16.37,0-30.34-5.82-41.91-17.47-11.58-11.65-17.36-25.79-17.36-42.44,0-17.83,6.54-32.7,19.62-44.58,11.47-10.35,24.65-15.53,39.55-15.53ZM1057.56,114.82c-8.9,0-16.3,3.1-22.23,9.29-5.92,6.19-8.88,14.11-8.88,23.76s2.92,17.97,8.78,24.13c5.85,6.15,13.26,9.23,22.22,9.23s16.43-3.11,22.38-9.34c5.95-6.22,8.93-14.23,8.93-24.02s-2.93-17.75-8.78-23.87c-5.85-6.12-13.33-9.18-22.44-9.18Z"/>
      <path class="cls-1" d="M1141.02,90.8h28.64v11.7c6.5-5.48,12.38-9.29,17.65-11.43,5.27-2.14,10.67-3.21,16.18-3.21,11.32,0,20.92,3.95,28.81,11.85,6.63,6.72,9.95,16.65,9.95,29.8v75.43h-28.33v-49.99c0-13.62-.61-22.67-1.83-27.14-1.22-4.47-3.35-7.88-6.39-10.22-3.03-2.34-6.78-3.51-11.25-3.51-5.79,0-10.76,1.94-14.92,5.82-4.15,3.88-7.03,9.24-8.64,16.08-.84,3.56-1.26,11.28-1.26,23.16v45.79h-28.64v-114.14Z"/>
      <text class="cls-2" transform="translate(863.26 292.95)"><tspan x="0" y="0">.DESIGNS</tspan></text>
      <g>
        <path class="cls-1" d="M244.03,323.75H79.72C35.76,323.75,0,287.99,0,244.03V79.72C0,35.76,35.76,0,79.72,0h164.31c43.96,0,79.72,35.76,79.72,79.72v164.31c0,43.96-35.76,79.72-79.72,79.72ZM79.72,12.73C42.78,12.73,12.73,42.78,12.73,79.72v164.31c0,36.94,30.05,66.99,66.99,66.99h164.31c36.94,0,66.99-30.05,66.99-66.99V79.72c0-36.94-30.05-66.99-66.99-66.99H79.72Z"/>
        <path class="cls-1" d="M130.13,226.93c-.07,11.79.27,27.12-12.05,32.61-7.22,3.5-19.53,3.22-29.35,3.02-14.19.05-26.3-4.68-27.9-20.36-.58-4.04-.71-8.32-.76-12.44-.08-15.24-.07-31.02,15.58-35.36,11.77-2.61,27.17-2.55,38.72-.11l.37.11c14.49,3.74,15.54,19.63,15.38,32.52ZM249.99,191.52c-12.98-5.44-30.55-.62-41.72-10.16-11.22-11.76-9.51-37.73,7.23-43.03l.36-.12c14.31-4.9,40.02.94,45.33-17.75,2.07-6.35,2.39-13.64,2.48-20.39-.37-14.32.56-29.98-13.43-35.72-11.21-4.01-25.03-3.39-36.88-2.48-34.09,2.83-16.36,35.17-31.47,53.03-9.2,8.97-29.9,8.83-38.56-.75-8.58-10.51-5-26.46-9.66-38.4-2.36-7.01-7.09-11.12-15.04-12.87-13.62-2.48-32.44-2.71-44.57,1.2-12.35,3.98-13.63,18.7-13.94,29.92-.39,26.12,1.23,40.54,30.31,41.51,9.39.73,20.17.64,27.54,7.08,10.99,10.4,4.82,35.93,14.42,46.29,6.25,6.8,16.3,7.31,25.1,8.12,35.64,1.37,29.03,19.38,33.35,46.45,2.46,16.22,16.65,18.96,30.75,19.14,13.95-.19,29.73,1.21,37.32-10.01,4.44-7.28,4.74-18.22,4.76-28.28-.41-13.58-.38-27.76-13.69-32.79Z"/>
      </g>
    </g>
  </g>
</svg>